<svg width="112" height="24" viewBox="0 0 112 24" fill="none" xmlns="http://www.w3.org/2000/svg">
<g clip-path="url(#clip0_53_3048)">
<rect width="112" height="24" rx="12" fill="#E8F7EF"/>
<g clip-path="url(#clip1_53_3048)">
<path d="M17 12C17 13.6569 15.6569 15 14 15C12.3431 15 11 13.6569 11 12C11 10.3431 12.3431 9 14 9C15.6569 9 17 10.3431 17 12Z" fill="#39AC6D"/>
</g>
<path d="M29.75 16H27.6534V15.0625H29.6818C30.4034 15.0625 31.0014 14.9233 31.4759 14.6449C31.9503 14.3665 32.304 13.9702 32.5369 13.456C32.7699 12.9418 32.8864 12.3295 32.8864 11.6193C32.8864 10.9148 32.7713 10.3082 32.5412 9.79972C32.3111 9.28835 31.9673 8.89631 31.5099 8.62358C31.0526 8.34801 30.483 8.21023 29.8011 8.21023H27.6023V7.27273H29.8693C30.7159 7.27273 31.4403 7.44744 32.0426 7.79688C32.6449 8.14347 33.1065 8.64205 33.4276 9.29261C33.7486 9.94034 33.9091 10.7159 33.9091 11.6193C33.9091 12.5284 33.7472 13.3111 33.4233 13.9673C33.0994 14.6207 32.6278 15.1236 32.0085 15.4759C31.3892 15.8253 30.6364 16 29.75 16ZM28.1136 7.27273V16H27.0568V7.27273H28.1136ZM25.7102 11.892V11.108H29.4602V11.892H25.7102ZM37.4716 16.1534C37.0568 16.1534 36.6804 16.0753 36.3423 15.919C36.0043 15.7599 35.7358 15.5312 35.5369 15.233C35.3381 14.9318 35.2386 14.5682 35.2386 14.142C35.2386 13.767 35.3125 13.4631 35.4602 13.2301C35.608 12.9943 35.8054 12.8097 36.0526 12.6761C36.2997 12.5426 36.5724 12.4432 36.8707 12.3778C37.1719 12.3097 37.4744 12.2557 37.7784 12.2159C38.1761 12.1648 38.4986 12.1264 38.7457 12.1009C38.9957 12.0724 39.1776 12.0256 39.2912 11.9602C39.4077 11.8949 39.4659 11.7812 39.4659 11.6193V11.5852C39.4659 11.1648 39.3509 10.8381 39.1207 10.6051C38.8935 10.3722 38.5483 10.2557 38.0852 10.2557C37.6051 10.2557 37.2287 10.3608 36.956 10.571C36.6832 10.7812 36.4915 11.0057 36.3807 11.2443L35.4261 10.9034C35.5966 10.5057 35.8239 10.196 36.108 9.97443C36.3949 9.75 36.7074 9.59375 37.0455 9.50568C37.3864 9.41477 37.7216 9.36932 38.0511 9.36932C38.2614 9.36932 38.5028 9.39489 38.7756 9.44602C39.0511 9.49432 39.3168 9.59517 39.5724 9.74858C39.831 9.90199 40.0455 10.1335 40.2159 10.4432C40.3864 10.7528 40.4716 11.1676 40.4716 11.6875V16H39.4659V15.1136H39.4148C39.3466 15.2557 39.233 15.4077 39.0739 15.5696C38.9148 15.7315 38.7031 15.8693 38.4389 15.983C38.1747 16.0966 37.8523 16.1534 37.4716 16.1534ZM37.625 15.25C38.0227 15.25 38.358 15.1719 38.6307 15.0156C38.9063 14.8594 39.1136 14.6577 39.2528 14.4105C39.3949 14.1634 39.4659 13.9034 39.4659 13.6307V12.7102C39.4233 12.7614 39.3295 12.8082 39.1847 12.8509C39.0426 12.8906 38.8778 12.9261 38.6903 12.9574C38.5057 12.9858 38.3253 13.0114 38.1491 13.0341C37.9759 13.054 37.8352 13.071 37.7273 13.0852C37.4659 13.1193 37.2216 13.1747 36.9943 13.2514C36.7699 13.3253 36.5881 13.4375 36.4489 13.5881C36.3125 13.7358 36.2443 13.9375 36.2443 14.1932C36.2443 14.5426 36.3736 14.8068 36.6321 14.9858C36.8935 15.1619 37.2244 15.25 37.625 15.25ZM36.8068 8.67045L36.0227 8.63636C36.0227 8.2017 36.1463 7.84659 36.3935 7.57102C36.6435 7.29261 36.9517 7.15341 37.3182 7.15341C37.4801 7.15341 37.6236 7.18182 37.7486 7.23864C37.8736 7.29261 37.9929 7.35511 38.1065 7.42614C38.2202 7.49716 38.3366 7.56108 38.456 7.6179C38.5781 7.67187 38.7159 7.69886 38.8693 7.69886C39.0312 7.69886 39.1676 7.63636 39.2784 7.51136C39.392 7.38352 39.4489 7.23011 39.4489 7.05114L40.2159 7.11932C40.2159 7.5625 40.0909 7.91477 39.8409 8.17614C39.5938 8.4375 39.2869 8.56818 38.9205 8.56818C38.7244 8.56818 38.5625 8.54119 38.4347 8.48722C38.3068 8.4304 38.1932 8.36648 38.0938 8.29545C37.9943 8.22443 37.8892 8.16193 37.7784 8.10795C37.6676 8.05114 37.5313 8.02273 37.3693 8.02273C37.2074 8.02273 37.0724 8.08665 36.9645 8.21449C36.8594 8.33949 36.8068 8.49148 36.8068 8.67045ZM48.3413 16.1364C47.7276 16.1364 47.1992 15.9915 46.756 15.7017C46.3129 15.4119 45.9719 15.0128 45.7333 14.5043C45.4947 13.9957 45.3754 13.4148 45.3754 12.7614C45.3754 12.0966 45.4975 11.5099 45.7418 11.0014C45.989 10.4901 46.3327 10.0909 46.7731 9.80398C47.2163 9.5142 47.7333 9.36932 48.3242 9.36932C48.7844 9.36932 49.1992 9.45455 49.5685 9.625C49.9379 9.79545 50.2404 10.0341 50.4762 10.3409C50.712 10.6477 50.8583 11.0057 50.9151 11.4148H49.9094C49.8327 11.1165 49.6623 10.8523 49.3981 10.6222C49.1367 10.3892 48.7844 10.2727 48.3413 10.2727C47.9492 10.2727 47.6055 10.375 47.31 10.5795C47.0174 10.7812 46.7887 11.0668 46.6239 11.4361C46.462 11.8026 46.381 12.233 46.381 12.7273C46.381 13.233 46.4606 13.6733 46.6197 14.0483C46.7816 14.4233 47.0089 14.7145 47.3015 14.9219C47.5969 15.1293 47.9435 15.233 48.3413 15.233C48.6026 15.233 48.8398 15.1875 49.0529 15.0966C49.266 15.0057 49.4464 14.875 49.5941 14.7045C49.7418 14.5341 49.8469 14.3295 49.9094 14.0909H50.9151C50.8583 14.4773 50.7177 14.8253 50.4933 15.1349C50.2717 15.4418 49.9776 15.6861 49.6112 15.8679C49.2475 16.0469 48.8242 16.1364 48.3413 16.1364ZM53.391 12.0625V16H52.3853V7.27273H53.391V10.4773H53.4762C53.6296 10.1392 53.8597 9.87074 54.1665 9.67188C54.4762 9.47017 54.8881 9.36932 55.4023 9.36932C55.8484 9.36932 56.239 9.45881 56.5742 9.63778C56.9094 9.81392 57.1694 10.0852 57.354 10.4517C57.5415 10.8153 57.6353 11.2784 57.6353 11.8409V16H56.6296V11.9091C56.6296 11.3892 56.4947 10.9872 56.2248 10.7031C55.9577 10.4162 55.587 10.2727 55.1126 10.2727C54.783 10.2727 54.4876 10.3423 54.2262 10.4815C53.9677 10.6207 53.7631 10.8239 53.6126 11.0909C53.4648 11.358 53.391 11.6818 53.391 12.0625ZM61.4013 16.1534C60.9865 16.1534 60.6101 16.0753 60.272 15.919C59.9339 15.7599 59.6655 15.5312 59.4666 15.233C59.2678 14.9318 59.1683 14.5682 59.1683 14.142C59.1683 13.767 59.2422 13.4631 59.3899 13.2301C59.5376 12.9943 59.7351 12.8097 59.9822 12.6761C60.2294 12.5426 60.5021 12.4432 60.8004 12.3778C61.1016 12.3097 61.4041 12.2557 61.7081 12.2159C62.1058 12.1648 62.4283 12.1264 62.6754 12.1009C62.9254 12.0724 63.1072 12.0256 63.2209 11.9602C63.3374 11.8949 63.3956 11.7812 63.3956 11.6193V11.5852C63.3956 11.1648 63.2805 10.8381 63.0504 10.6051C62.8232 10.3722 62.478 10.2557 62.0149 10.2557C61.5348 10.2557 61.1584 10.3608 60.8857 10.571C60.6129 10.7812 60.4212 11.0057 60.3104 11.2443L59.3558 10.9034C59.5263 10.5057 59.7536 10.196 60.0376 9.97443C60.3246 9.75 60.6371 9.59375 60.9751 9.50568C61.3161 9.41477 61.6513 9.36932 61.9808 9.36932C62.1911 9.36932 62.4325 9.39489 62.7053 9.44602C62.9808 9.49432 63.2464 9.59517 63.5021 9.74858C63.7607 9.90199 63.9751 10.1335 64.1456 10.4432C64.3161 10.7528 64.4013 11.1676 64.4013 11.6875V16H63.3956V15.1136H63.3445C63.2763 15.2557 63.1626 15.4077 63.0036 15.5696C62.8445 15.7315 62.6328 15.8693 62.3686 15.983C62.1044 16.0966 61.782 16.1534 61.4013 16.1534ZM61.5547 15.25C61.9524 15.25 62.2876 15.1719 62.5604 15.0156C62.8359 14.8594 63.0433 14.6577 63.1825 14.4105C63.3246 14.1634 63.3956 13.9034 63.3956 13.6307V12.7102C63.353 12.7614 63.2592 12.8082 63.1143 12.8509C62.9723 12.8906 62.8075 12.9261 62.62 12.9574C62.4354 12.9858 62.255 13.0114 62.0788 13.0341C61.9055 13.054 61.7649 13.071 61.657 13.0852C61.3956 13.1193 61.1513 13.1747 60.924 13.2514C60.6996 13.3253 60.5178 13.4375 60.3786 13.5881C60.2422 13.7358 60.174 13.9375 60.174 14.1932C60.174 14.5426 60.3033 14.8068 60.5618 14.9858C60.8232 15.1619 61.1541 15.25 61.5547 15.25ZM59.8501 8.63636L61.5888 7.08523H62.5263L64.2649 8.63636H63.0376L62.0661 7.73295L61.0945 8.63636H59.8501ZM63.8047 7.59659L64.6399 6.0625H65.8842L64.6911 7.59659H63.8047ZM66.2369 18.4545V9.45455H67.2085V10.4943H67.3278C67.4016 10.3807 67.5039 10.2358 67.6346 10.0597C67.7681 9.88068 67.9585 9.72159 68.2056 9.58239C68.4556 9.44034 68.7937 9.36932 69.2198 9.36932C69.771 9.36932 70.2567 9.5071 70.6772 9.78267C71.0977 10.0582 71.4258 10.4489 71.6616 10.9545C71.8974 11.4602 72.0153 12.0568 72.0153 12.7443C72.0153 13.4375 71.8974 14.0384 71.6616 14.5469C71.4258 15.0526 71.0991 15.4446 70.6815 15.723C70.2638 15.9986 69.7823 16.1364 69.2369 16.1364C68.8164 16.1364 68.4798 16.0668 68.2269 15.9276C67.9741 15.7855 67.7795 15.625 67.6431 15.446C67.5067 15.2642 67.4016 15.1136 67.3278 14.9943H67.2425V18.4545H66.2369ZM67.2255 12.7273C67.2255 13.2216 67.2979 13.6577 67.4428 14.0355C67.5877 14.4105 67.7994 14.7045 68.0778 14.9176C68.3562 15.1278 68.6971 15.233 69.1005 15.233C69.521 15.233 69.8718 15.1222 70.1531 14.9006C70.4371 14.6761 70.6502 14.375 70.7923 13.9972C70.9371 13.6165 71.0096 13.1932 71.0096 12.7273C71.0096 12.267 70.9386 11.8523 70.7965 11.483C70.6573 11.1108 70.4457 10.8168 70.1616 10.6009C69.8803 10.3821 69.5266 10.2727 69.1005 10.2727C68.6914 10.2727 68.3477 10.3764 68.0692 10.5838C67.7908 10.7884 67.5806 11.0753 67.4386 11.4446C67.2965 11.8111 67.2255 12.2386 67.2255 12.7273ZM77.93 12.0625V16H76.9244V9.45455H77.896V10.4773H77.9812C78.1346 10.1449 78.3675 9.87784 78.68 9.67614C78.9925 9.47159 79.396 9.36932 79.8903 9.36932C80.3335 9.36932 80.7212 9.46023 81.0536 9.64205C81.386 9.82102 81.6445 10.0938 81.8292 10.4602C82.0138 10.8239 82.1062 11.2841 82.1062 11.8409V16H81.1005V11.9091C81.1005 11.3949 80.967 10.9943 80.6999 10.7074C80.4329 10.4176 80.0664 10.2727 79.6005 10.2727C79.2795 10.2727 78.9925 10.3423 78.7397 10.4815C78.4897 10.6207 78.2923 10.8239 78.1474 11.0909C78.0025 11.358 77.93 11.6818 77.93 12.0625ZM84.9496 12.0625V16H83.9439V7.27273H84.9496V10.4773H85.0348C85.1882 10.1392 85.4183 9.87074 85.7251 9.67188C86.0348 9.47017 86.4467 9.36932 86.9609 9.36932C87.407 9.36932 87.7976 9.45881 88.1328 9.63778C88.468 9.81392 88.728 10.0852 88.9126 10.4517C89.1001 10.8153 89.1939 11.2784 89.1939 11.8409V16H88.1882V11.9091C88.1882 11.3892 88.0533 10.9872 87.7834 10.7031C87.5163 10.4162 87.1456 10.2727 86.6712 10.2727C86.3416 10.2727 86.0462 10.3423 85.7848 10.4815C85.5263 10.6207 85.3217 10.8239 85.1712 11.0909C85.0234 11.358 84.9496 11.6818 84.9496 12.0625ZM92.9599 16.1534C92.5451 16.1534 92.1687 16.0753 91.8306 15.919C91.4925 15.7599 91.2241 15.5312 91.0252 15.233C90.8263 14.9318 90.7269 14.5682 90.7269 14.142C90.7269 13.767 90.8008 13.4631 90.9485 13.2301C91.0962 12.9943 91.2937 12.8097 91.5408 12.6761C91.788 12.5426 92.0607 12.4432 92.359 12.3778C92.6602 12.3097 92.9627 12.2557 93.2667 12.2159C93.6644 12.1648 93.9869 12.1264 94.234 12.1009C94.484 12.0724 94.6658 12.0256 94.7795 11.9602C94.896 11.8949 94.9542 11.7812 94.9542 11.6193V11.5852C94.9542 11.1648 94.8391 10.8381 94.609 10.6051C94.3817 10.3722 94.0366 10.2557 93.5735 10.2557C93.0934 10.2557 92.717 10.3608 92.4442 10.571C92.1715 10.7812 91.9798 11.0057 91.869 11.2443L90.9144 10.9034C91.0849 10.5057 91.3121 10.196 91.5962 9.97443C91.8832 9.75 92.1957 9.59375 92.5337 9.50568C92.8746 9.41477 93.2099 9.36932 93.5394 9.36932C93.7496 9.36932 93.9911 9.39489 94.2638 9.44602C94.5394 9.49432 94.805 9.59517 95.0607 9.74858C95.3192 9.90199 95.5337 10.1335 95.7042 10.4432C95.8746 10.7528 95.9599 11.1676 95.9599 11.6875V16H94.9542V15.1136H94.9031C94.8349 15.2557 94.7212 15.4077 94.5621 15.5696C94.4031 15.7315 94.1914 15.8693 93.9272 15.983C93.663 16.0966 93.3406 16.1534 92.9599 16.1534ZM93.1133 15.25C93.511 15.25 93.8462 15.1719 94.119 15.0156C94.3945 14.8594 94.6019 14.6577 94.7411 14.4105C94.8832 14.1634 94.9542 13.9034 94.9542 13.6307V12.7102C94.9116 12.7614 94.8178 12.8082 94.6729 12.8509C94.5309 12.8906 94.3661 12.9261 94.1786 12.9574C93.994 12.9858 93.8136 13.0114 93.6374 13.0341C93.4641 13.054 93.3235 13.071 93.2156 13.0852C92.9542 13.1193 92.7099 13.1747 92.4826 13.2514C92.2582 13.3253 92.0763 13.4375 91.9371 13.5881C91.8008 13.7358 91.7326 13.9375 91.7326 14.1932C91.7326 14.5426 91.8619 14.8068 92.1204 14.9858C92.3817 15.1619 92.7127 15.25 93.1133 15.25ZM94.494 8.67045L93.6076 7.47727L92.7212 8.67045H91.7667V8.60227L93.1474 6.82955H94.0678L95.4485 8.60227V8.67045H94.494ZM93.5565 18.1648C93.3604 18.1648 93.1914 18.098 93.0494 17.9645C92.9102 17.831 92.8406 17.6705 92.8406 17.483C92.8406 17.2955 92.9102 17.1349 93.0494 17.0014C93.1914 16.8679 93.3604 16.8011 93.5565 16.8011C93.7525 16.8011 93.9201 16.8679 94.0593 17.0014C94.2013 17.1349 94.2724 17.2955 94.2724 17.483C94.2724 17.6705 94.2013 17.831 94.0593 17.9645C93.9201 18.098 93.7525 18.1648 93.5565 18.1648ZM98.8011 12.0625V16H97.7955V9.45455H98.767V10.4773H98.8523C99.0057 10.1449 99.2386 9.87784 99.5511 9.67614C99.8636 9.47159 100.267 9.36932 100.761 9.36932C101.205 9.36932 101.592 9.46023 101.925 9.64205C102.257 9.82102 102.516 10.0938 102.7 10.4602C102.885 10.8239 102.977 11.2841 102.977 11.8409V16H101.972V11.9091C101.972 11.3949 101.838 10.9943 101.571 10.7074C101.304 10.4176 100.938 10.2727 100.472 10.2727C100.151 10.2727 99.8636 10.3423 99.6108 10.4815C99.3608 10.6207 99.1634 10.8239 99.0185 11.0909C98.8736 11.358 98.8011 11.6818 98.8011 12.0625Z" fill="#39AC6D"/>
</g>
<defs>
<clipPath id="clip0_53_3048">
<rect width="112" height="24" rx="12" fill="white"/>
</clipPath>
<clipPath id="clip1_53_3048">
<rect x="8" y="6" width="12" height="12" rx="4" fill="white"/>
</clipPath>
</defs>
</svg>
