<svg width="88" height="24" viewBox="0 0 88 24" fill="none" xmlns="http://www.w3.org/2000/svg">
<g clip-path="url(#clip0_21_3151)">
<rect width="88" height="24" rx="12" fill="#FCEEED"/>
<g clip-path="url(#clip1_21_3151)">
<path d="M17 12C17 13.6569 15.6569 15 14 15C12.3431 15 11 13.6569 11 12C11 10.3431 12.3431 9 14 9C15.6569 9 17 10.3431 17 12Z" fill="#E14337"/>
</g>
<path d="M27.0568 16V7.27273H30.108C30.7159 7.27273 31.2173 7.37784 31.6122 7.58807C32.0071 7.79545 32.3011 8.07528 32.4943 8.42756C32.6875 8.77699 32.7841 9.16477 32.7841 9.59091C32.7841 9.96591 32.7173 10.2756 32.5838 10.5199C32.4531 10.7642 32.2798 10.9574 32.0639 11.0994C31.8509 11.2415 31.6193 11.3466 31.3693 11.4148V11.5C31.6364 11.517 31.9048 11.6108 32.1747 11.7812C32.4446 11.9517 32.6705 12.196 32.8523 12.5142C33.0341 12.8324 33.125 13.2216 33.125 13.6818C33.125 14.1193 33.0256 14.5128 32.8267 14.8622C32.6278 15.2116 32.3139 15.4886 31.8849 15.6932C31.456 15.8977 30.8977 16 30.2102 16H27.0568ZM28.1136 15.0625H30.2102C30.9006 15.0625 31.3906 14.929 31.6804 14.6619C31.973 14.392 32.1193 14.0653 32.1193 13.6818C32.1193 13.3864 32.044 13.1136 31.8935 12.8636C31.7429 12.6108 31.5284 12.4091 31.25 12.2585C30.9716 12.1051 30.642 12.0284 30.2614 12.0284H28.1136V15.0625ZM28.1136 11.108H30.0739C30.392 11.108 30.679 11.0455 30.9347 10.9205C31.1932 10.7955 31.3977 10.6193 31.5483 10.392C31.7017 10.1648 31.7784 9.89773 31.7784 9.59091C31.7784 9.20739 31.6449 8.8821 31.3778 8.61506C31.1108 8.34517 30.6875 8.21023 30.108 8.21023H28.1136V11.108ZM34.7251 16V9.45455H35.7308V16H34.7251ZM35.2365 8.36364C35.0405 8.36364 34.8714 8.29688 34.7294 8.16335C34.5902 8.02983 34.5206 7.86932 34.5206 7.68182C34.5206 7.49432 34.5902 7.33381 34.7294 7.20028C34.8714 7.06676 35.0405 7 35.2365 7C35.4325 7 35.6001 7.06676 35.7393 7.20028C35.8814 7.33381 35.9524 7.49432 35.9524 7.68182C35.9524 7.86932 35.8814 8.02983 35.7393 8.16335C35.6001 8.29688 35.4325 8.36364 35.2365 8.36364ZM35.2365 18.1648C35.0405 18.1648 34.8714 18.098 34.7294 17.9645C34.5902 17.831 34.5206 17.6705 34.5206 17.483C34.5206 17.2955 34.5902 17.1349 34.7294 17.0014C34.8714 16.8679 35.0405 16.8011 35.2365 16.8011C35.4325 16.8011 35.6001 16.8679 35.7393 17.0014C35.8814 17.1349 35.9524 17.2955 35.9524 17.483C35.9524 17.6705 35.8814 17.831 35.7393 17.9645C35.6001 18.098 35.4325 18.1648 35.2365 18.1648ZM43.7944 9.45455V10.3068H40.4023V9.45455H43.7944ZM41.391 7.88636H42.3967V14.125C42.3967 14.4091 42.4379 14.6222 42.5202 14.7642C42.6055 14.9034 42.7134 14.9972 42.8441 15.0455C42.9776 15.0909 43.1183 15.1136 43.266 15.1136C43.3768 15.1136 43.4677 15.108 43.5387 15.0966C43.6097 15.0824 43.6665 15.071 43.7092 15.0625L43.9137 15.9659C43.8455 15.9915 43.7504 16.017 43.6282 16.0426C43.506 16.071 43.3512 16.0852 43.1637 16.0852C42.8796 16.0852 42.6012 16.0241 42.3285 15.902C42.0586 15.7798 41.8342 15.5938 41.6552 15.3438C41.479 15.0938 41.391 14.7784 41.391 14.3977V7.88636ZM51.2049 9.16477H52.0913C52.0913 9.59659 52.0344 9.95881 51.9208 10.2514C51.8072 10.5412 51.6083 10.7599 51.3242 10.9077C51.0401 11.0526 50.6424 11.125 50.131 11.125V10.4261C50.4833 10.4261 50.7333 10.3835 50.881 10.2983C51.0316 10.2102 51.1225 10.0739 51.1538 9.8892C51.1879 9.7017 51.2049 9.46023 51.2049 9.16477ZM49.4322 13.3239V9.45455H50.4379V16H49.4322V14.892H49.364C49.2106 15.2244 48.9719 15.5071 48.6481 15.7401C48.3242 15.9702 47.9151 16.0852 47.4208 16.0852C47.0117 16.0852 46.6481 15.9957 46.3299 15.8168C46.0117 15.6349 45.7617 15.3622 45.5799 14.9986C45.3981 14.6321 45.3072 14.1705 45.3072 13.6136V9.45455H46.3129V13.5455C46.3129 14.0227 46.4464 14.4034 46.7134 14.6875C46.9833 14.9716 47.3271 15.1136 47.7447 15.1136C47.9947 15.1136 48.2489 15.0497 48.5075 14.9219C48.7688 14.794 48.9876 14.598 49.1637 14.3338C49.3427 14.0696 49.4322 13.733 49.4322 13.3239ZM47.4549 8.56818L46.1254 6.59091H47.3015L48.3413 8.56818H47.4549ZM58.8061 16.1364C58.1925 16.1364 57.6641 15.9915 57.2209 15.7017C56.7777 15.4119 56.4368 15.0128 56.1982 14.5043C55.9595 13.9957 55.8402 13.4148 55.8402 12.7614C55.8402 12.0966 55.9624 11.5099 56.2067 11.0014C56.4538 10.4901 56.7976 10.0909 57.2379 9.80398C57.6811 9.5142 58.1982 9.36932 58.7891 9.36932C59.2493 9.36932 59.6641 9.45455 60.0334 9.625C60.4027 9.79545 60.7053 10.0341 60.9411 10.3409C61.1768 10.6477 61.3232 11.0057 61.38 11.4148H60.3743C60.2976 11.1165 60.1271 10.8523 59.8629 10.6222C59.6016 10.3892 59.2493 10.2727 58.8061 10.2727C58.4141 10.2727 58.0703 10.375 57.7749 10.5795C57.4822 10.7812 57.2536 11.0668 57.0888 11.4361C56.9268 11.8026 56.8459 12.233 56.8459 12.7273C56.8459 13.233 56.9254 13.6733 57.0845 14.0483C57.2464 14.4233 57.4737 14.7145 57.7663 14.9219C58.0618 15.1293 58.4084 15.233 58.8061 15.233C59.0675 15.233 59.3047 15.1875 59.5178 15.0966C59.7308 15.0057 59.9112 14.875 60.0589 14.7045C60.2067 14.5341 60.3118 14.3295 60.3743 14.0909H61.38C61.3232 14.4773 61.1825 14.8253 60.9581 15.1349C60.7365 15.4418 60.4425 15.6861 60.076 15.8679C59.7124 16.0469 59.2891 16.1364 58.8061 16.1364ZM63.8558 12.0625V16H62.8501V7.27273H63.8558V10.4773H63.9411C64.0945 10.1392 64.3246 9.87074 64.6314 9.67188C64.9411 9.47017 65.353 9.36932 65.8672 9.36932C66.3132 9.36932 66.7038 9.45881 67.0391 9.63778C67.3743 9.81392 67.6342 10.0852 67.8189 10.4517C68.0064 10.8153 68.1001 11.2784 68.1001 11.8409V16H67.0945V11.9091C67.0945 11.3892 66.9595 10.9872 66.6896 10.7031C66.4226 10.4162 66.0518 10.2727 65.5774 10.2727C65.2479 10.2727 64.9524 10.3423 64.6911 10.4815C64.4325 10.6207 64.228 10.8239 64.0774 11.0909C63.9297 11.358 63.8558 11.6818 63.8558 12.0625ZM72.5991 16.1364C72.0082 16.1364 71.4897 15.9957 71.0437 15.7145C70.6005 15.4332 70.2539 15.0398 70.0039 14.5341C69.7567 14.0284 69.6332 13.4375 69.6332 12.7614C69.6332 12.0795 69.7567 11.4844 70.0039 10.9759C70.2539 10.4673 70.6005 10.0724 71.0437 9.79119C71.4897 9.50994 72.0082 9.36932 72.5991 9.36932C73.19 9.36932 73.707 9.50994 74.1502 9.79119C74.5962 10.0724 74.9428 10.4673 75.19 10.9759C75.44 11.4844 75.565 12.0795 75.565 12.7614C75.565 13.4375 75.44 14.0284 75.19 14.5341C74.9428 15.0398 74.5962 15.4332 74.1502 15.7145C73.707 15.9957 73.19 16.1364 72.5991 16.1364ZM72.5991 15.233C73.0479 15.233 73.4173 15.1179 73.707 14.8878C73.9968 14.6577 74.2113 14.3551 74.3505 13.9801C74.4897 13.6051 74.5593 13.1989 74.5593 12.7614C74.5593 12.3239 74.4897 11.9162 74.3505 11.5384C74.2113 11.1605 73.9968 10.8551 73.707 10.6222C73.4173 10.3892 73.0479 10.2727 72.5991 10.2727C72.1502 10.2727 71.7809 10.3892 71.4911 10.6222C71.2013 10.8551 70.9869 11.1605 70.8477 11.5384C70.7085 11.9162 70.6388 12.3239 70.6388 12.7614C70.6388 13.1989 70.7085 13.6051 70.8477 13.9801C70.9869 14.3551 71.2013 14.6577 71.4911 14.8878C71.7809 15.1179 72.1502 15.233 72.5991 15.233ZM70.4002 8.63636L72.1388 7.08523H73.0763L74.815 8.63636H73.5877L72.6161 7.73295L71.6445 8.63636H70.4002ZM74.3548 7.59659L75.19 6.0625H76.4343L75.2411 7.59659H74.3548ZM77.1001 16V9.45455H78.1058V16H77.1001ZM77.6115 8.36364C77.4155 8.36364 77.2464 8.29688 77.1044 8.16335C76.9652 8.02983 76.8956 7.86932 76.8956 7.68182C76.8956 7.49432 76.9652 7.33381 77.1044 7.20028C77.2464 7.06676 77.4155 7 77.6115 7C77.8075 7 77.9751 7.06676 78.1143 7.20028C78.2564 7.33381 78.3274 7.49432 78.3274 7.68182C78.3274 7.86932 78.2564 8.02983 78.1143 8.16335C77.9751 8.29688 77.8075 8.36364 77.6115 8.36364Z" fill="#E14337"/>
</g>
<defs>
<clipPath id="clip0_21_3151">
<rect width="88" height="24" rx="12" fill="white"/>
</clipPath>
<clipPath id="clip1_21_3151">
<rect x="8" y="6" width="12" height="12" rx="4" fill="white"/>
</clipPath>
</defs>
</svg>
