<svg width="20" height="20" viewBox="0 0 20 20" fill="none" xmlns="http://www.w3.org/2000/svg">
<g id="Icon/outline/suggested/check-double">
<g id="Vector">
<path fill-rule="evenodd" clip-rule="evenodd" d="M13.5153 5.17559C13.8367 5.44344 13.8801 5.92114 13.6123 6.24257L6.03655 15.3335C5.90028 15.497 5.70152 15.5956 5.48889 15.6053C5.27626 15.6149 5.06938 15.5347 4.91888 15.3842L1.88858 12.3539C1.59272 12.058 1.59272 11.5783 1.88858 11.2825C2.18443 10.9866 2.6641 10.9866 2.95995 11.2825L5.40365 13.7262L12.4483 5.27259C12.7162 4.95117 13.1939 4.90774 13.5153 5.17559Z" fill="black" fill-opacity="0.6" style="mix-blend-mode:multiply"/>
<path fill-rule="evenodd" clip-rule="evenodd" d="M18.0607 5.17559C18.3822 5.44344 18.4256 5.92114 18.1577 6.24257L10.582 15.3335C10.4457 15.497 10.247 15.5956 10.0343 15.6053C9.82171 15.6149 9.61483 15.5347 9.46432 15.3842L8.70675 14.6266C8.4109 14.3307 8.4109 13.8511 8.70675 13.5552C9.0026 13.2594 9.48227 13.2594 9.77812 13.5552L9.9491 13.7262L16.9938 5.27259C17.2616 4.95117 17.7393 4.90774 18.0607 5.17559Z" fill="black" fill-opacity="0.6" style="mix-blend-mode:multiply"/>
</g>
</g>
</svg>
