<svg width="96" height="22" viewBox="0 0 96 22" fill="none" xmlns="http://www.w3.org/2000/svg">
<g clip-path="url(#clip0_40_2932)">
<path fill-rule="evenodd" clip-rule="evenodd" d="M4.90911 3.66666H11.0909V6.0909H15.3334V7.42423H0.666687V6.0909H4.90911V3.66666ZM6.24244 6.0909H9.7576V4.99999H6.24244V6.0909ZM3.76903 8.46935L4.34196 16.4931C4.35176 16.6307 4.41335 16.7597 4.51431 16.8537C4.61526 16.9477 4.7481 17 4.88608 17H11.114C11.2519 17 11.3848 16.9477 11.4857 16.8537C11.5867 16.7597 11.6483 16.6309 11.6581 16.4933L12.231 8.46935L13.561 8.56432L12.988 16.5879C12.988 16.588 12.988 16.5879 12.988 16.5879C12.9543 17.0619 12.7422 17.5056 12.3944 17.8294C12.0467 18.1533 11.5891 18.3333 11.1139 18.3333H4.8861C4.41089 18.3333 3.95334 18.1533 3.60559 17.8294C3.25788 17.5056 3.04579 17.062 3.01202 16.5881C3.01201 16.588 3.01202 16.5881 3.01202 16.5881L2.43908 8.56432L3.76903 8.46935Z" fill="#366AE2"/>
</g>
<g clip-path="url(#clip1_40_2932)">
<path d="M25.1186 16V5.81818H26.6548V10.2429H31.7308V5.81818H33.272V16H31.7308V11.5604H26.6548V16H25.1186ZM40.2273 12.8331V8.36364H41.7188V16H40.2571V14.6776H40.1776C40.0019 15.0852 39.7202 15.425 39.3324 15.6967C38.9479 15.9652 38.469 16.0994 37.8956 16.0994C37.4051 16.0994 36.9709 15.9917 36.593 15.7763C36.2185 15.5575 35.9235 15.2344 35.7081 14.8068C35.496 14.3793 35.3899 13.8506 35.3899 13.2209V8.36364H36.8764V13.0419C36.8764 13.5623 37.0206 13.9766 37.3089 14.2848C37.5973 14.593 37.9718 14.7472 38.4325 14.7472C38.7109 14.7472 38.9877 14.6776 39.2628 14.5384C39.5412 14.3991 39.7715 14.1887 39.9538 13.907C40.1394 13.6252 40.2306 13.2673 40.2273 12.8331ZM39.1683 7.30966H37.995L37.9553 6.29545C38.3066 6.27888 38.5552 6.23248 38.701 6.15625C38.8468 6.0767 38.9181 5.96236 38.9148 5.81321C38.9181 5.63423 38.817 5.50663 38.6115 5.4304C38.4093 5.35417 38.1624 5.31605 37.8707 5.31605L37.9155 4.49574C38.6679 4.49574 39.2379 4.61506 39.6257 4.85369C40.0168 5.09233 40.2107 5.41383 40.2074 5.81818C40.2107 6.14631 40.103 6.38826 39.8842 6.54403C39.6688 6.6965 39.4302 6.79261 39.1683 6.83239V7.30966ZM44.6557 18.8636C44.4337 18.8636 44.2315 18.8454 44.0492 18.8089C43.8669 18.7758 43.731 18.7393 43.6415 18.6996L43.9995 17.4815C44.2712 17.5545 44.5132 17.5859 44.7253 17.576C44.9374 17.5661 45.1247 17.4865 45.2871 17.3374C45.4528 17.1882 45.5987 16.9446 45.7246 16.6065L45.9086 16.0994L43.1145 8.36364H44.7054L46.6394 14.2898H46.7189L48.6529 8.36364H50.2488L47.1017 17.0192C46.9559 17.4169 46.7703 17.7533 46.5449 18.0284C46.3195 18.3068 46.0511 18.5156 45.7395 18.6548C45.428 18.794 45.0667 18.8636 44.6557 18.8636ZM54.968 7.14062V5.81818H62.848V7.14062H59.6712V16H58.1399V7.14062H54.968ZM64.47 16V8.36364H65.9565V16H64.47ZM65.2207 7.18537C64.9622 7.18537 64.7401 7.09919 64.5545 6.92685C64.3722 6.75118 64.2811 6.54238 64.2811 6.30043C64.2811 6.05516 64.3722 5.84635 64.5545 5.67401C64.7401 5.49834 64.9622 5.41051 65.2207 5.41051C65.4792 5.41051 65.6996 5.49834 65.8819 5.67401C66.0675 5.84635 66.1603 6.05516 66.1603 6.30043C66.1603 6.54238 66.0675 6.75118 65.8819 6.92685C65.6996 7.09919 65.4792 7.18537 65.2207 7.18537ZM71.1729 16.1541C70.4338 16.1541 69.7975 15.9867 69.2638 15.652C68.7335 15.3139 68.3259 14.8482 68.0408 14.255C67.7558 13.6617 67.6133 12.9822 67.6133 12.2166C67.6133 11.4411 67.7591 10.7566 68.0508 10.1634C68.3424 9.56676 68.7534 9.10109 69.2837 8.76633C69.814 8.43158 70.4388 8.2642 71.158 8.2642C71.738 8.2642 72.2551 8.37192 72.7092 8.58736C73.1632 8.79948 73.5295 9.09777 73.8079 9.48224C74.0896 9.86671 74.257 10.3158 74.31 10.8295H72.8633C72.7837 10.4716 72.6014 10.1634 72.3164 9.90483C72.0347 9.64631 71.6568 9.51705 71.1829 9.51705C70.7686 9.51705 70.4057 9.62642 70.0941 9.84517C69.7859 10.0606 69.5456 10.3688 69.3732 10.7699C69.2009 11.1676 69.1147 11.6383 69.1147 12.1818C69.1147 12.7386 69.1992 13.2192 69.3683 13.6236C69.5373 14.0279 69.7759 14.3411 70.0842 14.5632C70.3957 14.7853 70.762 14.8963 71.1829 14.8963C71.4646 14.8963 71.7198 14.8449 71.9485 14.7422C72.1805 14.6361 72.3744 14.4853 72.5302 14.2898C72.6893 14.0942 72.8003 13.8589 72.8633 13.5838H74.31C74.257 14.0777 74.0962 14.5185 73.8278 14.9062C73.5593 15.294 73.1997 15.599 72.7489 15.821C72.3015 16.0431 71.7762 16.1541 71.1729 16.1541ZM77.2669 13.4098L77.2569 11.5952H77.5154L80.5581 8.36364H82.3379L78.8677 12.0426H78.6341L77.2669 13.4098ZM75.8997 16V5.81818H77.3862V16H75.8997ZM80.7221 16L77.9877 12.3707L79.0119 11.3317L82.5467 16H80.7221ZM86.6694 16.1541C85.917 16.1541 85.2691 15.9934 84.7255 15.6719C84.1853 15.3471 83.7676 14.8913 83.4727 14.3047C83.181 13.7147 83.0352 13.0237 83.0352 12.2315C83.0352 11.4493 83.181 10.7599 83.4727 10.1634C83.7676 9.56676 84.1786 9.10109 84.7056 8.76633C85.2359 8.43158 85.8557 8.2642 86.565 8.2642C86.9959 8.2642 87.4135 8.33546 87.8178 8.47798C88.2222 8.6205 88.5851 8.84422 88.9066 9.14915C89.2281 9.45407 89.4817 9.85014 89.6673 10.3374C89.8529 10.8213 89.9457 11.4096 89.9457 12.1023V12.6293H83.8754V11.5156H88.489C88.489 11.1245 88.4094 10.7782 88.2504 10.4766C88.0913 10.1716 87.8675 9.93134 87.5792 9.75568C87.2942 9.58002 86.9594 9.49219 86.5749 9.49219C86.1573 9.49219 85.7927 9.59493 85.4812 9.80043C85.1729 10.0026 84.9343 10.2678 84.7653 10.5959C84.5996 10.9207 84.5167 11.2737 84.5167 11.6548V12.5249C84.5167 13.0353 84.6062 13.4695 84.7852 13.8274C84.9674 14.1854 85.221 14.4588 85.5458 14.6477C85.8706 14.8333 86.2501 14.9261 86.6843 14.9261C86.966 14.9261 87.2229 14.8864 87.4549 14.8068C87.6869 14.724 87.8874 14.6013 88.0565 14.4389C88.2255 14.2765 88.3548 14.076 88.4442 13.8374L89.8512 14.0909C89.7385 14.5052 89.5363 14.8681 89.2447 15.1797C88.9563 15.4879 88.5934 15.7282 88.1559 15.9006C87.7217 16.0696 87.2262 16.1541 86.6694 16.1541ZM95.1596 8.36364V9.55682H90.9885V8.36364H95.1596ZM92.1071 6.53409H93.5936V13.7578C93.5936 14.0462 93.6367 14.2633 93.7228 14.4091C93.809 14.5516 93.92 14.6494 94.0559 14.7024C94.1951 14.7521 94.3459 14.777 94.5083 14.777C94.6277 14.777 94.7321 14.7687 94.8216 14.7521C94.911 14.7356 94.9806 14.7223 95.0304 14.7124L95.2988 15.9403C95.2127 15.9735 95.09 16.0066 94.9309 16.0398C94.7718 16.0762 94.573 16.0961 94.3343 16.0994C93.9432 16.1061 93.5787 16.0365 93.2406 15.8906C92.9025 15.7448 92.6291 15.5194 92.4203 15.2145C92.2115 14.9096 92.1071 14.5268 92.1071 14.0661V6.53409Z" fill="#366AE2"/>
</g>
<defs>
<clipPath id="clip0_40_2932">
<rect width="16" height="16" fill="white" transform="translate(0 3)"/>
</clipPath>
<clipPath id="clip1_40_2932">
<rect x="24" width="72" height="22" rx="8" fill="white"/>
</clipPath>
</defs>
</svg>
