<svg width="73" height="15" viewBox="0 0 73 15" fill="none" xmlns="http://www.w3.org/2000/svg">
<path d="M8.00911 4.0348C7.91299 3.73319 7.78373 3.46307 7.62133 3.22443C7.46224 2.98248 7.27166 2.77699 7.04959 2.60795C6.82753 2.43561 6.57398 2.30469 6.28894 2.2152C6.00722 2.12571 5.69732 2.08097 5.35925 2.08097C4.78586 2.08097 4.26882 2.22846 3.80812 2.52344C3.34742 2.81842 2.98283 3.25095 2.71437 3.82102C2.44922 4.38778 2.31664 5.08215 2.31664 5.90412C2.31664 6.7294 2.45087 7.42708 2.71934 7.99716C2.9878 8.56723 3.3557 8.99976 3.82303 9.29474C4.29036 9.58973 4.82232 9.73722 5.41891 9.73722C5.97242 9.73722 6.45466 9.62453 6.86565 9.39915C7.27994 9.17377 7.59978 8.85559 7.82516 8.4446C8.05386 8.0303 8.1682 7.54309 8.1682 6.98295L8.56593 7.05753H5.65258V5.78977H9.65471V6.94815C9.65471 7.80327 9.47242 8.54569 9.10783 9.17543C8.74656 9.80185 8.24609 10.2857 7.60641 10.6271C6.97005 10.9685 6.24088 11.1392 5.41891 11.1392C4.49751 11.1392 3.6888 10.9271 2.99278 10.5028C2.30007 10.0786 1.75982 9.47704 1.37204 8.69815C0.984253 7.91596 0.790361 6.98793 0.790361 5.91406C0.790361 5.10204 0.90305 4.37287 1.12843 3.72656C1.35381 3.08026 1.67033 2.53172 2.078 2.08097C2.48899 1.62689 2.97123 1.28054 3.52474 1.0419C4.08155 0.799952 4.68975 0.678977 5.34931 0.678977C5.8995 0.678977 6.41157 0.76018 6.88553 0.922585C7.3628 1.08499 7.78705 1.31534 8.15826 1.61364C8.53279 1.91193 8.84268 2.26657 9.08795 2.67756C9.33321 3.08523 9.49893 3.53764 9.58511 4.0348H8.00911ZM14.7021 11.1541C13.9862 11.1541 13.3614 10.9901 12.8278 10.6619C12.2942 10.3338 11.8799 9.87476 11.5849 9.2848C11.2899 8.69484 11.1425 8.00544 11.1425 7.21662C11.1425 6.42448 11.2899 5.73177 11.5849 5.13849C11.8799 4.54522 12.2942 4.08452 12.8278 3.75639C13.3614 3.42827 13.9862 3.2642 14.7021 3.2642C15.418 3.2642 16.0428 3.42827 16.5764 3.75639C17.11 4.08452 17.5243 4.54522 17.8193 5.13849C18.1143 5.73177 18.2618 6.42448 18.2618 7.21662C18.2618 8.00544 18.1143 8.69484 17.8193 9.2848C17.5243 9.87476 17.11 10.3338 16.5764 10.6619C16.0428 10.9901 15.418 11.1541 14.7021 11.1541ZM14.7071 9.90625C15.1711 9.90625 15.5556 9.78362 15.8605 9.53835C16.1654 9.29309 16.3908 8.96662 16.5366 8.55895C16.6858 8.15128 16.7604 7.70218 16.7604 7.21165C16.7604 6.72443 16.6858 6.27699 16.5366 5.86932C16.3908 5.45833 16.1654 5.12855 15.8605 4.87997C15.5556 4.63139 15.1711 4.5071 14.7071 4.5071C14.2398 4.5071 13.852 4.63139 13.5437 4.87997C13.2388 5.12855 13.0118 5.45833 12.8626 5.86932C12.7168 6.27699 12.6439 6.72443 12.6439 7.21165C12.6439 7.70218 12.7168 8.15128 12.8626 8.55895C13.0118 8.96662 13.2388 9.29309 13.5437 9.53835C13.852 9.78362 14.2398 9.90625 14.7071 9.90625ZM27.1908 3.36364V4.55682H23.0196V3.36364H27.1908ZM24.1382 1.53409H25.6247V8.75781C25.6247 9.04616 25.6678 9.26326 25.754 9.40909C25.8401 9.55161 25.9512 9.64938 26.0871 9.70241C26.2263 9.75213 26.3771 9.77699 26.5395 9.77699C26.6588 9.77699 26.7632 9.7687 26.8527 9.75213C26.9422 9.73556 27.0118 9.7223 27.0615 9.71236L27.33 10.9403C27.2438 10.9735 27.1211 11.0066 26.9621 11.0398C26.803 11.0762 26.6041 11.0961 26.3655 11.0994C25.9744 11.1061 25.6098 11.0365 25.2717 10.8906C24.9336 10.7448 24.6602 10.5194 24.4514 10.2145C24.2426 9.90956 24.1382 9.52675 24.1382 9.06605V1.53409ZM31.9697 11.1541C31.2538 11.1541 30.629 10.9901 30.0954 10.6619C29.5618 10.3338 29.1475 9.87476 28.8525 9.2848C28.5575 8.69484 28.41 8.00544 28.41 7.21662C28.41 6.42448 28.5575 5.73177 28.8525 5.13849C29.1475 4.54522 29.5618 4.08452 30.0954 3.75639C30.629 3.42827 31.2538 3.2642 31.9697 3.2642C32.6856 3.2642 33.3104 3.42827 33.844 3.75639C34.3776 4.08452 34.7919 4.54522 35.0869 5.13849C35.3819 5.73177 35.5294 6.42448 35.5294 7.21662C35.5294 8.00544 35.3819 8.69484 35.0869 9.2848C34.7919 9.87476 34.3776 10.3338 33.844 10.6619C33.3104 10.9901 32.6856 11.1541 31.9697 11.1541ZM31.9747 9.90625C32.4387 9.90625 32.8231 9.78362 33.1281 9.53835C33.433 9.29309 33.6584 8.96662 33.8042 8.55895C33.9534 8.15128 34.0279 7.70218 34.0279 7.21165C34.0279 6.72443 33.9534 6.27699 33.8042 5.86932C33.6584 5.45833 33.433 5.12855 33.1281 4.87997C32.8231 4.63139 32.4387 4.5071 31.9747 4.5071C31.5073 4.5071 31.1196 4.63139 30.8113 4.87997C30.5064 5.12855 30.2794 5.45833 30.1302 5.86932C29.9844 6.27699 29.9115 6.72443 29.9115 7.21165C29.9115 7.70218 29.9844 8.15128 30.1302 8.55895C30.2794 8.96662 30.5064 9.29309 30.8113 9.53835C31.1196 9.78362 31.5073 9.90625 31.9747 9.90625ZM40.8937 13.8636V3.36364H42.3454V4.60156H42.4697C42.5559 4.44247 42.6802 4.25852 42.8426 4.04972C43.005 3.84091 43.2303 3.65862 43.5187 3.50284C43.8071 3.34375 44.1882 3.2642 44.6622 3.2642C45.2786 3.2642 45.8288 3.41998 46.3127 3.73153C46.7966 4.04309 47.1761 4.49219 47.4512 5.07884C47.7296 5.66548 47.8688 6.37145 47.8688 7.19673C47.8688 8.02202 47.7313 8.72964 47.4562 9.3196C47.1811 9.90625 46.8033 10.3587 46.3227 10.6768C45.8421 10.9917 45.2936 11.1491 44.6771 11.1491C44.2131 11.1491 43.8336 11.0713 43.5386 10.9155C43.2469 10.7597 43.0182 10.5774 42.8525 10.3686C42.6868 10.1598 42.5592 9.9742 42.4697 9.81179H42.3802V13.8636H40.8937ZM42.3504 7.18182C42.3504 7.71875 42.4283 8.18939 42.584 8.59375C42.7398 8.99811 42.9652 9.31463 43.2602 9.54332C43.5552 9.7687 43.9164 9.88139 44.344 9.88139C44.7881 9.88139 45.1593 9.76373 45.4576 9.52841C45.7559 9.28977 45.9813 8.96662 46.1338 8.55895C46.2895 8.15128 46.3674 7.69223 46.3674 7.18182C46.3674 6.67803 46.2912 6.22562 46.1387 5.82457C45.9896 5.42353 45.7642 5.10701 45.4626 4.875C45.1643 4.64299 44.7914 4.52699 44.344 4.52699C43.9131 4.52699 43.5485 4.63802 43.2502 4.86009C42.9553 5.08215 42.7315 5.39205 42.5791 5.78977C42.4266 6.1875 42.3504 6.65151 42.3504 7.18182ZM51.7566 11.169C51.2727 11.169 50.8352 11.0795 50.4441 10.9006C50.053 10.7183 49.7431 10.4548 49.5144 10.1101C49.2891 9.76539 49.1764 9.3428 49.1764 8.84233C49.1764 8.41146 49.2592 8.05682 49.4249 7.77841C49.5907 7.5 49.8144 7.27959 50.0961 7.11719C50.3778 6.95478 50.6927 6.83215 51.0407 6.74929C51.3887 6.66643 51.7434 6.60346 52.1046 6.56037C52.562 6.50734 52.9332 6.46425 53.2183 6.43111C53.5033 6.39465 53.7105 6.33665 53.8397 6.2571C53.969 6.17756 54.0336 6.0483 54.0336 5.86932V5.83452C54.0336 5.40033 53.911 5.06392 53.6657 4.82528C53.4238 4.58665 53.0625 4.46733 52.5819 4.46733C52.0814 4.46733 51.687 4.57836 51.3987 4.80043C51.1136 5.01918 50.9164 5.26278 50.8071 5.53125L49.41 5.21307C49.5758 4.74905 49.8177 4.37453 50.1359 4.08949C50.4574 3.80114 50.8269 3.59233 51.2446 3.46307C51.6622 3.33049 52.1013 3.2642 52.562 3.2642C52.8669 3.2642 53.1901 3.30066 53.5315 3.37358C53.8762 3.44318 54.1977 3.57244 54.496 3.76136C54.7976 3.95028 55.0445 4.22041 55.2367 4.57173C55.429 4.91974 55.5251 5.37216 55.5251 5.92898V11H54.0734V9.95597H54.0137C53.9176 10.1482 53.7734 10.3371 53.5812 10.5227C53.389 10.7083 53.142 10.8625 52.8404 10.9851C52.5388 11.1077 52.1776 11.169 51.7566 11.169ZM52.0798 9.97585C52.4908 9.97585 52.8421 9.89465 53.1338 9.73224C53.4287 9.56984 53.6525 9.35772 53.8049 9.09588C53.9607 8.83073 54.0386 8.54735 54.0386 8.24574V7.26136C53.9856 7.31439 53.8828 7.36411 53.7303 7.41051C53.5812 7.4536 53.4105 7.49171 53.2183 7.52486C53.026 7.55469 52.8388 7.58286 52.6565 7.60938C52.4742 7.63258 52.3217 7.65246 52.1991 7.66903C51.9107 7.70549 51.6473 7.76681 51.4086 7.85298C51.1733 7.93916 50.9844 8.06345 50.8419 8.22585C50.7026 8.38494 50.633 8.59706 50.633 8.86222C50.633 9.23011 50.7689 9.50852 51.0407 9.69744C51.3125 9.88305 51.6589 9.97585 52.0798 9.97585ZM60.7067 14.0227C60.1002 14.0227 59.5782 13.9432 59.1407 13.7841C58.7065 13.625 58.3519 13.4145 58.0768 13.1527C57.8017 12.8909 57.5962 12.6042 57.4603 12.2926L58.738 11.7656C58.8275 11.9115 58.9468 12.0656 59.0959 12.228C59.2484 12.3937 59.4539 12.5346 59.7124 12.6506C59.9743 12.7666 60.3107 12.8246 60.7216 12.8246C61.2851 12.8246 61.7508 12.687 62.1187 12.4119C62.4866 12.1402 62.6705 11.706 62.6705 11.1094V9.60795H62.576C62.4866 9.77036 62.3573 9.95099 62.1883 10.1499C62.0225 10.3487 61.7939 10.5211 61.5022 10.6669C61.2105 10.8127 60.831 10.8857 60.3637 10.8857C59.7605 10.8857 59.2169 10.7448 58.733 10.4631C58.2524 10.178 57.8713 9.75876 57.5895 9.20526C57.3111 8.64844 57.1719 7.96401 57.1719 7.15199C57.1719 6.33996 57.3095 5.64394 57.5846 5.06392C57.863 4.4839 58.2441 4.03977 58.728 3.73153C59.2119 3.41998 59.7605 3.2642 60.3736 3.2642C60.8476 3.2642 61.2304 3.34375 61.5221 3.50284C61.8137 3.65862 62.0408 3.84091 62.2032 4.04972C62.3689 4.25852 62.4965 4.44247 62.586 4.60156H62.6954V3.36364H64.152V11.169C64.152 11.8253 63.9996 12.3639 63.6947 12.7848C63.3897 13.2057 62.9771 13.5173 62.4567 13.7195C61.9397 13.9216 61.3564 14.0227 60.7067 14.0227ZM60.6918 9.6527C61.1194 9.6527 61.4806 9.55327 61.7756 9.3544C62.0739 9.15223 62.2993 8.86387 62.4518 8.48935C62.6075 8.11151 62.6854 7.65909 62.6854 7.1321C62.6854 6.61837 62.6092 6.16596 62.4567 5.77486C62.3043 5.38376 62.0805 5.07884 61.7856 4.86009C61.4906 4.63802 61.126 4.52699 60.6918 4.52699C60.2444 4.52699 59.8715 4.64299 59.5732 4.875C59.2749 5.10369 59.0495 5.41525 58.8971 5.80966C58.7479 6.20407 58.6734 6.64489 58.6734 7.1321C58.6734 7.63258 58.7496 8.07173 58.902 8.44957C59.0545 8.82741 59.2799 9.1224 59.5782 9.33452C59.8798 9.54664 60.251 9.6527 60.6918 9.6527ZM69.4368 11.1541C68.6845 11.1541 68.0365 10.9934 67.493 10.6719C66.9527 10.3471 66.5351 9.89134 66.2401 9.30469C65.9484 8.71473 65.8026 8.02367 65.8026 7.23153C65.8026 6.44934 65.9484 5.75994 66.2401 5.16335C66.5351 4.56676 66.9461 4.10109 67.4731 3.76633C68.0034 3.43158 68.6232 3.2642 69.3324 3.2642C69.7633 3.2642 70.1809 3.33546 70.5853 3.47798C70.9896 3.6205 71.3526 3.84422 71.6741 4.14915C71.9956 4.45407 72.2491 4.85014 72.4347 5.33736C72.6203 5.82126 72.7131 6.40956 72.7131 7.10227V7.62926H66.6428V6.51562H71.2564C71.2564 6.12453 71.1769 5.77817 71.0178 5.47656C70.8587 5.17164 70.635 4.93134 70.3466 4.75568C70.0616 4.58002 69.7269 4.49219 69.3424 4.49219C68.9248 4.49219 68.5602 4.59493 68.2486 4.80043C67.9404 5.0026 67.7018 5.26776 67.5327 5.59588C67.367 5.92069 67.2841 6.27367 67.2841 6.65483V7.52486C67.2841 8.03527 67.3736 8.46946 67.5526 8.82741C67.7349 9.18537 67.9885 9.45881 68.3133 9.64773C68.6381 9.83333 69.0176 9.92614 69.4518 9.92614C69.7335 9.92614 69.9903 9.88636 70.2224 9.80682C70.4544 9.72396 70.6549 9.60133 70.8239 9.43892C70.993 9.27652 71.1222 9.07599 71.2117 8.83736L72.6187 9.09091C72.506 9.50521 72.3038 9.86813 72.0121 10.1797C71.7238 10.4879 71.3609 10.7282 70.9234 10.9006C70.4892 11.0696 69.9937 11.1541 69.4368 11.1541Z" fill="black" fill-opacity="0.6" style="mix-blend-mode:multiply"/>
</svg>
