<svg width="16" height="16" viewBox="0 0 16 16" fill="none" xmlns="http://www.w3.org/2000/svg">
<g id="Icon/outline/suggested/e-add">
<path id="Vector" d="M8.60604 1.93937C8.60604 1.60466 8.3347 1.33331 7.99998 1.33331C7.66526 1.33331 7.39392 1.60466 7.39392 1.93937V7.39392H1.93937C1.60466 7.39392 1.33331 7.66526 1.33331 7.99998C1.33331 8.3347 1.60466 8.60604 1.93937 8.60604H7.39392V14.0606C7.39392 14.3953 7.66526 14.6666 7.99998 14.6666C8.3347 14.6666 8.60604 14.3953 8.60604 14.0606V8.60604H14.0606C14.3953 8.60604 14.6666 8.3347 14.6666 7.99998C14.6666 7.66526 14.3953 7.39392 14.0606 7.39392H8.60604V1.93937Z" fill="white"/>
</g>
</svg>
