<svg width="20" height="20" viewBox="0 0 20 20" fill="none" xmlns="http://www.w3.org/2000/svg">
<g id="Frame">
<g id="Layer 2">
<g id="Vector">
<path d="M15 1.66667H5C4.33696 1.66667 3.70108 1.93006 3.23224 2.3989C2.7634 2.86775 2.5 3.50363 2.5 4.16667V16.5C2.49939 16.7817 2.57019 17.059 2.70579 17.3059C2.84138 17.5528 3.03735 17.7613 3.27538 17.912C3.51342 18.0626 3.78575 18.1504 4.06694 18.1673C4.34814 18.1842 4.62901 18.1295 4.88334 18.0083C5.08334 17.9083 5.25834 17.8 5.44167 17.6917C5.79427 17.4269 6.22589 17.2889 6.66667 17.3C7.11001 17.289 7.54424 17.4269 7.9 17.6917C8.51536 18.1206 9.25002 18.345 10 18.3333C10.7501 18.3456 11.4849 18.1211 12.1 17.6917C12.4555 17.4263 12.8899 17.2884 13.3333 17.3C13.7743 17.2876 14.2064 17.4257 14.5583 17.6917C14.7388 17.8043 14.9252 17.9072 15.1167 18C15.3704 18.1208 15.6505 18.1756 15.931 18.1591C16.2115 18.1426 16.4833 18.0555 16.7211 17.9058C16.9589 17.7562 17.155 17.5488 17.2912 17.303C17.4274 17.0572 17.4992 16.781 17.5 16.5V4.16667C17.5 3.50363 17.2366 2.86775 16.7678 2.3989C16.2989 1.93006 15.663 1.66667 15 1.66667ZM10 13.3333H6.66667C6.44566 13.3333 6.2337 13.2455 6.07742 13.0893C5.92113 12.933 5.83334 12.721 5.83334 12.5C5.83334 12.279 5.92113 12.067 6.07742 11.9107C6.2337 11.7545 6.44566 11.6667 6.66667 11.6667H10C10.221 11.6667 10.433 11.7545 10.5893 11.9107C10.7455 12.067 10.8333 12.279 10.8333 12.5C10.8333 12.721 10.7455 12.933 10.5893 13.0893C10.433 13.2455 10.221 13.3333 10 13.3333ZM13.3333 10H6.66667C6.44566 10 6.2337 9.91221 6.07742 9.75593C5.92113 9.59965 5.83334 9.38769 5.83334 9.16667C5.83334 8.94566 5.92113 8.7337 6.07742 8.57742C6.2337 8.42114 6.44566 8.33334 6.66667 8.33334H13.3333C13.5544 8.33334 13.7663 8.42114 13.9226 8.57742C14.0789 8.7337 14.1667 8.94566 14.1667 9.16667C14.1667 9.38769 14.0789 9.59965 13.9226 9.75593C13.7663 9.91221 13.5544 10 13.3333 10ZM13.3333 6.66667H6.66667C6.44566 6.66667 6.2337 6.57887 6.07742 6.42259C5.92113 6.26631 5.83334 6.05435 5.83334 5.83334C5.83334 5.61232 5.92113 5.40036 6.07742 5.24408C6.2337 5.0878 6.44566 5.00001 6.66667 5.00001H13.3333C13.5544 5.00001 13.7663 5.0878 13.9226 5.24408C14.0789 5.40036 14.1667 5.61232 14.1667 5.83334C14.1667 6.05435 14.0789 6.26631 13.9226 6.42259C13.7663 6.57887 13.5544 6.66667 13.3333 6.66667Z" fill="black" fill-opacity="0.6" style="mix-blend-mode:multiply"/>
</g>
</g>
</g>
</svg>
