<svg width="20" height="20" viewBox="0 0 20 20" fill="none" xmlns="http://www.w3.org/2000/svg">
<g id="Icon/filled/app/home">
<g id="Vector">
<path d="M17.3367 7.62266L10.0905 1.82565C9.96194 1.72275 9.80221 1.66669 9.63757 1.66669C9.47293 1.66669 9.3132 1.72275 9.18468 1.82565L1.93842 7.62266C1.85359 7.69058 1.78512 7.77671 1.73809 7.87467C1.69105 7.97263 1.66665 8.07992 1.66669 8.18859V17.6087C1.66669 17.8009 1.74303 17.9852 1.87893 18.1211C2.01482 18.257 2.19913 18.3334 2.39131 18.3334H7.46369V12.5363H11.8114V18.3334H16.8838C17.076 18.3334 17.2603 18.257 17.3962 18.1211C17.5321 17.9852 17.6085 17.8009 17.6085 17.6087V8.18859C17.6085 8.07992 17.5841 7.97263 17.5371 7.87467C17.49 7.77671 17.4216 7.69058 17.3367 7.62266Z" fill="black" fill-opacity="0.6" style="mix-blend-mode:multiply"/>
</g>
</g>
</svg>
