<svg width="20" height="20" viewBox="0 0 20 20" fill="none" xmlns="http://www.w3.org/2000/svg">
<g id="Layer_1" clip-path="url(#clip0_21_982)">
<g id="Vector">
<path d="M18.005 4.538H13.6976V2.8023C13.6976 1.97585 13.0252 1.30353 12.1988 1.30353H7.80093C6.97448 1.30353 6.30211 1.97585 6.30211 2.8023V4.538H1.99466C0.897365 4.538 0.0046214 5.43075 0.0046214 6.52804C0.0046214 7.52477 -0.0974552 8.41989 0.657864 9.42654C1.08521 9.99607 1.67248 10.4024 2.35615 10.6014L8.99506 12.5343C9.65231 12.7257 10.3472 12.7258 11.0045 12.5343L17.6434 10.6014C18.3271 10.4023 18.9144 9.99607 19.3417 9.42654C20.1005 8.41537 19.995 7.51104 19.995 6.52804C19.995 5.43075 19.1023 4.538 18.005 4.538ZM7.57162 2.8023C7.57162 2.67587 7.67449 2.57304 7.80093 2.57304H12.1988C12.3252 2.57304 12.4281 2.67591 12.4281 2.8023V4.538H7.57162V2.8023Z" fill="black" fill-opacity="0.6" style="mix-blend-mode:multiply"/>
</g>
<g id="Vector_2">
<path d="M17.9984 11.8202C10.8375 13.9052 10.9302 13.9473 9.99982 13.9473C9.07609 13.9473 9.29524 13.9439 2.0013 11.8203C1.23226 11.5963 0.551163 11.1836 0.00463867 10.6146V16.7065C0.00463867 17.8038 0.897343 18.6965 1.99468 18.6965H18.005C19.1023 18.6965 19.995 17.8038 19.995 16.7065V10.6146C19.4485 11.1835 18.7674 11.5963 17.9984 11.8202Z" fill="black" fill-opacity="0.6" style="mix-blend-mode:multiply"/>
</g>
</g>
<defs>
<clipPath id="clip0_21_982">
<rect width="20" height="20" fill="white"/>
</clipPath>
</defs>
</svg>
