<svg width="20" height="20" viewBox="0 0 20 20" fill="none" xmlns="http://www.w3.org/2000/svg">
<g id="Icon/filled/app/menu">
<g id="Vector">
<path d="M10 1.66669C8.86561 1.66669 7.94273 2.5896 7.94273 3.72398C7.94273 4.85835 8.86565 5.78127 10 5.78127C11.1344 5.78127 12.0573 4.85839 12.0573 3.72398C12.0573 2.58957 11.1344 1.66669 10 1.66669Z" fill="black" fill-opacity="0.6" style="mix-blend-mode:multiply"/>
<path d="M10 7.94273C8.86561 7.94273 7.94273 8.86565 7.94273 10C7.94273 11.1344 8.86565 12.0573 10 12.0573C11.1344 12.0573 12.0573 11.1344 12.0573 10C12.0573 8.86565 11.1344 7.94273 10 7.94273Z" fill="black" fill-opacity="0.6" style="mix-blend-mode:multiply"/>
<path d="M10 14.2188C8.86561 14.2188 7.94273 15.1417 7.94273 16.2761C7.94273 17.4105 8.86561 18.3334 10 18.3334C11.1344 18.3334 12.0573 17.4104 12.0573 16.2761C12.0573 15.1417 11.1344 14.2188 10 14.2188Z" fill="black" fill-opacity="0.6" style="mix-blend-mode:multiply"/>
<path d="M3.72398 1.66669C2.5896 1.66669 1.66669 2.5896 1.66669 3.72398C1.66669 4.85835 2.5896 5.78127 3.72398 5.78127C4.85835 5.78127 5.78127 4.85839 5.78127 3.72398C5.78127 2.58957 4.85839 1.66669 3.72398 1.66669Z" fill="black" fill-opacity="0.6" style="mix-blend-mode:multiply"/>
<path d="M3.72398 7.94273C2.5896 7.94273 1.66669 8.86561 1.66669 10C1.66669 11.1344 2.5896 12.0573 3.72398 12.0573C4.85835 12.0573 5.78127 11.1344 5.78127 10C5.78127 8.86565 4.85839 7.94273 3.72398 7.94273Z" fill="black" fill-opacity="0.6" style="mix-blend-mode:multiply"/>
<path d="M3.72398 14.2188C2.5896 14.2188 1.66669 15.1417 1.66669 16.2761C1.66669 17.4105 2.5896 18.3334 3.72398 18.3334C4.85835 18.3334 5.78127 17.4104 5.78127 16.2761C5.78127 15.1417 4.85839 14.2188 3.72398 14.2188Z" fill="black" fill-opacity="0.6" style="mix-blend-mode:multiply"/>
<path d="M16.2761 1.66669C15.1417 1.66669 14.2188 2.5896 14.2188 3.72398C14.2188 4.85835 15.1417 5.78127 16.2761 5.78127C17.4105 5.78127 18.3334 4.85839 18.3334 3.72398C18.3334 2.58957 17.4104 1.66669 16.2761 1.66669Z" fill="black" fill-opacity="0.6" style="mix-blend-mode:multiply"/>
<path d="M16.2761 7.94273C15.1417 7.94273 14.2188 8.86565 14.2188 10C14.2188 11.1344 15.1417 12.0573 16.2761 12.0573C17.4104 12.0573 18.3334 11.1344 18.3334 10C18.3334 8.86561 17.4104 7.94273 16.2761 7.94273Z" fill="black" fill-opacity="0.6" style="mix-blend-mode:multiply"/>
<path d="M16.2761 14.2188C15.1417 14.2188 14.2188 15.1417 14.2188 16.2761C14.2188 17.4105 15.1417 18.3334 16.2761 18.3334C17.4104 18.3334 18.3334 17.4104 18.3334 16.2761C18.3334 15.1417 17.4104 14.2188 16.2761 14.2188Z" fill="black" fill-opacity="0.6" style="mix-blend-mode:multiply"/>
</g>
</g>
</svg>
