<svg width="20" height="20" viewBox="0 0 20 20" fill="none" xmlns="http://www.w3.org/2000/svg">
<g id="Icon/filled/app/person-user">
<g id="Vector">
<path d="M14.1664 5.83332C14.1664 8.13451 12.3009 9.99999 9.99972 9.99999C7.69853 9.99999 5.83305 8.13451 5.83305 5.83332C5.83305 3.53214 7.69853 1.66666 9.99972 1.66666C12.3009 1.66666 14.1664 3.53214 14.1664 5.83332Z" fill="black" fill-opacity="0.6" style="mix-blend-mode:multiply"/>
<path d="M3.05554 16.0183C3.05554 14.3141 5.31249 11.3891 9.99999 11.3891C14.6875 11.3891 16.9444 14.3141 16.9444 16.0183V16.9447C16.9444 17.3131 16.7981 17.6663 16.5376 17.9268C16.2772 18.1873 15.9239 18.3336 15.5555 18.3336H4.44443C4.07607 18.3336 3.72281 18.1873 3.46234 17.9268C3.20187 17.6663 3.05554 17.3131 3.05554 16.9447V16.0183Z" fill="black" fill-opacity="0.6" style="mix-blend-mode:multiply"/>
</g>
</g>
</svg>
