<svg width="17" height="16" viewBox="0 0 17 16" fill="none" xmlns="http://www.w3.org/2000/svg">
<path d="M6.95845 8.16685C5.38617 8.16685 4.11115 6.32237 4.11115 4.75009V4.18063C4.11115 2.60836 5.38617 1.33334 6.95845 1.33334C8.53073 1.33334 9.80575 2.60836 9.80575 4.18063V4.75009C9.80575 6.32237 8.53073 8.16685 6.95845 8.16685Z" fill="white"/>
<path d="M8.66683 12.7225C8.66683 11.5232 9.19871 10.4504 10.037 9.71977C9.18162 9.4954 8.11901 9.30577 6.95845 9.30577C5.3503 9.30577 3.9238 9.66909 2.98704 9.98514C2.29458 10.2192 1.83331 10.8712 1.83331 11.6018V13.8615H8.83425C8.72662 13.5004 8.66683 13.1183 8.66683 12.7225Z" fill="white"/>
<path d="M11.5141 14.6667L9.56999 12.7225L10.3752 11.9173L11.5141 13.0562L14.3614 10.2089L15.1666 11.0142L11.5141 14.6667Z" fill="white"/>
</svg>
