<svg width="20" height="20" viewBox="0 0 20 20" fill="none" xmlns="http://www.w3.org/2000/svg">
<g id="Icon/filled/app/star">
<g id="Vector">
<path d="M17.7381 7.18953L12.8212 6.47502L10.6249 2.02271C10.5611 1.91429 10.47 1.82441 10.3608 1.76197C10.2515 1.69953 10.1279 1.66669 10.0021 1.66669C9.87625 1.66669 9.7526 1.69953 9.64336 1.76197C9.53412 1.82441 9.44308 1.91429 9.37922 2.02271L7.17876 6.47502L2.26192 7.18953C2.1337 7.20803 2.01321 7.26204 1.91408 7.34545C1.81495 7.42885 1.74113 7.53833 1.70096 7.6615C1.6608 7.78466 1.65589 7.91661 1.6868 8.04242C1.7177 8.16823 1.78319 8.28289 1.87585 8.37343L5.4345 11.8411L4.59501 16.7385C4.57313 16.8662 4.58741 16.9975 4.63624 17.1175C4.68507 17.2375 4.7665 17.3414 4.87132 17.4176C4.97614 17.4937 5.10017 17.539 5.22939 17.5483C5.35861 17.5577 5.48787 17.5307 5.60254 17.4704L9.99999 15.1588L14.3974 17.4704C14.5121 17.5307 14.6414 17.5577 14.7706 17.5483C14.8998 17.539 15.0238 17.4937 15.1287 17.4176C15.2335 17.3414 15.3149 17.2375 15.3637 17.1175C15.4126 16.9975 15.4269 16.8662 15.405 16.7385L14.5655 11.8411L18.1241 8.37343C18.2168 8.28298 18.2823 8.16844 18.3132 8.04273C18.3442 7.91702 18.3394 7.78515 18.2994 7.66202C18.2594 7.53889 18.1858 7.4294 18.0868 7.3459C17.9879 7.26241 17.8676 7.20825 17.7395 7.18953H17.7381Z" fill="black" fill-opacity="0.6" style="mix-blend-mode:multiply"/>
</g>
</g>
</svg>
