<svg width="20" height="20" viewBox="0 0 20 20" fill="none" xmlns="http://www.w3.org/2000/svg">
<g id="Icon/filled/app/event-ticket">
<g id="Vector">
<path d="M17.6389 8.19442C18.0229 8.19442 18.3334 7.88401 18.3334 7.49998V4.02776C18.3334 3.64373 18.0229 3.33331 17.6389 3.33331H2.36113C1.9771 3.33331 1.66669 3.64373 1.66669 4.02776V7.49998C1.66669 7.88401 1.9771 8.19442 2.36113 8.19442C3.1271 8.19442 3.75002 8.81734 3.75002 9.58331C3.75002 10.3493 3.1271 10.9722 2.36113 10.9722C1.9771 10.9722 1.66669 11.2826 1.66669 11.6666V15.1389C1.66669 15.5229 1.9771 15.8333 2.36113 15.8333H17.6389C18.0229 15.8333 18.3334 15.5229 18.3334 15.1389V11.6666C18.3334 11.2826 18.0229 10.9722 17.6389 10.9722C16.8729 10.9722 16.25 10.3493 16.25 9.58331C16.25 8.81734 16.8729 8.19442 17.6389 8.19442ZM13.4722 11.6666H6.5278V10.2778H13.4722V11.6666ZM13.4722 8.88887H6.5278V7.49998H13.4722V8.88887Z" fill="black" fill-opacity="0.6" style="mix-blend-mode:multiply"/>
</g>
</g>
</svg>
