<svg width="88" height="24" viewBox="0 0 88 24" fill="none" xmlns="http://www.w3.org/2000/svg">
<g clip-path="url(#clip0_21_1376)">
<rect width="88" height="24" rx="12" fill="#FBF5E4"/>
<g clip-path="url(#clip1_21_1376)">
<path d="M17 12C17 13.6569 15.6569 15 14 15C12.3431 15 11 13.6569 11 12C11 10.3431 12.3431 9 14 9C15.6569 9 17 10.3431 17 12Z" fill="#DEA821"/>
</g>
<path d="M34.0795 10H33.0227C32.9602 9.69602 32.8509 9.42898 32.6946 9.19886C32.5412 8.96875 32.3537 8.77557 32.1321 8.61932C31.9134 8.46023 31.6705 8.34091 31.4034 8.26136C31.1364 8.18182 30.858 8.14205 30.5682 8.14205C30.0398 8.14205 29.5611 8.27557 29.1321 8.54261C28.706 8.80966 28.3665 9.20312 28.1136 9.72301C27.8636 10.2429 27.7386 10.8807 27.7386 11.6364C27.7386 12.392 27.8636 13.0298 28.1136 13.5497C28.3665 14.0696 28.706 14.4631 29.1321 14.7301C29.5611 14.9972 30.0398 15.1307 30.5682 15.1307C30.858 15.1307 31.1364 15.0909 31.4034 15.0114C31.6705 14.9318 31.9134 14.8139 32.1321 14.6577C32.3537 14.4986 32.5412 14.304 32.6946 14.0739C32.8509 13.8409 32.9602 13.5739 33.0227 13.2727H34.0795C34 13.7187 33.8551 14.1179 33.6449 14.4702C33.4347 14.8224 33.1733 15.1222 32.8608 15.3693C32.5483 15.6136 32.1974 15.7997 31.8082 15.9276C31.4219 16.0554 31.0085 16.1193 30.5682 16.1193C29.8239 16.1193 29.1619 15.9375 28.5824 15.5739C28.0028 15.2102 27.5469 14.6932 27.2145 14.0227C26.8821 13.3523 26.7159 12.5568 26.7159 11.6364C26.7159 10.7159 26.8821 9.92045 27.2145 9.25C27.5469 8.57955 28.0028 8.0625 28.5824 7.69886C29.1619 7.33523 29.8239 7.15341 30.5682 7.15341C31.0085 7.15341 31.4219 7.21733 31.8082 7.34517C32.1974 7.47301 32.5483 7.66051 32.8608 7.90767C33.1733 8.15199 33.4347 8.45028 33.6449 8.80256C33.8551 9.15199 34 9.55114 34.0795 10ZM36.6566 12.0625V16H35.6509V7.27273H36.6566V10.4773H36.7418C36.8952 10.1392 37.1254 9.87074 37.4322 9.67188C37.7418 9.47017 38.1538 9.36932 38.668 9.36932C39.114 9.36932 39.5046 9.45881 39.8398 9.63778C40.1751 9.81392 40.435 10.0852 40.6197 10.4517C40.8072 10.8153 40.9009 11.2784 40.9009 11.8409V16H39.8952V11.9091C39.8952 11.3892 39.7603 10.9872 39.4904 10.7031C39.2234 10.4162 38.8526 10.2727 38.3782 10.2727C38.0487 10.2727 37.7532 10.3423 37.4918 10.4815C37.2333 10.6207 37.0288 10.8239 36.8782 11.0909C36.7305 11.358 36.6566 11.6818 36.6566 12.0625ZM48.0589 8.96023H48.9964C48.9964 9.60795 48.8544 10.1222 48.5703 10.5028C48.2891 10.8835 47.7947 11.0739 47.0874 11.0739V10.358C47.3714 10.358 47.5817 10.2997 47.718 10.1832C47.8572 10.0668 47.9482 9.90341 47.9908 9.69318C48.0362 9.48295 48.0589 9.23864 48.0589 8.96023ZM45.3999 16.1364C44.8089 16.1364 44.2905 15.9957 43.8445 15.7145C43.4013 15.4332 43.0547 15.0398 42.8047 14.5341C42.5575 14.0284 42.4339 13.4375 42.4339 12.7614C42.4339 12.0795 42.5575 11.4844 42.8047 10.9759C43.0547 10.4673 43.4013 10.0724 43.8445 9.79119C44.2905 9.50994 44.8089 9.36932 45.3999 9.36932C45.9908 9.36932 46.5078 9.50994 46.951 9.79119C47.397 10.0724 47.7436 10.4673 47.9908 10.9759C48.2408 11.4844 48.3658 12.0795 48.3658 12.7614C48.3658 13.4375 48.2408 14.0284 47.9908 14.5341C47.7436 15.0398 47.397 15.4332 46.951 15.7145C46.5078 15.9957 45.9908 16.1364 45.3999 16.1364ZM45.3999 15.233C45.8487 15.233 46.218 15.1179 46.5078 14.8878C46.7976 14.6577 47.0121 14.3551 47.1513 13.9801C47.2905 13.6051 47.3601 13.1989 47.3601 12.7614C47.3601 12.3239 47.2905 11.9162 47.1513 11.5384C47.0121 11.1605 46.7976 10.8551 46.5078 10.6222C46.218 10.3892 45.8487 10.2727 45.3999 10.2727C44.951 10.2727 44.5817 10.3892 44.2919 10.6222C44.0021 10.8551 43.7876 11.1605 43.6484 11.5384C43.5092 11.9162 43.4396 12.3239 43.4396 12.7614C43.4396 13.1989 43.5092 13.6051 43.6484 13.9801C43.7876 14.3551 44.0021 14.6577 44.2919 14.8878C44.5817 15.1179 44.951 15.233 45.3999 15.233ZM44.9737 8.56818L43.6442 6.59091H44.8203L45.8601 8.56818H44.9737ZM54.0376 9.45455L55.6058 12.1307L57.174 9.45455H58.3331L56.2195 12.7273L58.3331 16H57.174L55.6058 13.4602L54.0376 16H52.8786L54.9581 12.7273L52.8786 9.45455H54.0376ZM65.6658 9.16477H66.5522C66.5522 9.59659 66.4954 9.95881 66.3817 10.2514C66.2681 10.5412 66.0692 10.7599 65.7852 10.9077C65.5011 11.0526 65.1033 11.125 64.592 11.125V10.4261C64.9442 10.4261 65.1942 10.3835 65.342 10.2983C65.4925 10.2102 65.5835 10.0739 65.6147 9.8892C65.6488 9.7017 65.6658 9.46023 65.6658 9.16477ZM63.8931 13.3239V9.45455H64.8988V16H63.8931V14.892H63.8249C63.6715 15.2244 63.4329 15.5071 63.109 15.7401C62.7852 15.9702 62.3761 16.0852 61.8817 16.0852C61.4727 16.0852 61.109 15.9957 60.7908 15.8168C60.4727 15.6349 60.2227 15.3622 60.0408 14.9986C59.859 14.6321 59.7681 14.1705 59.7681 13.6136V9.45455H60.7738V13.5455C60.7738 14.0227 60.9073 14.4034 61.1744 14.6875C61.4442 14.9716 61.788 15.1136 62.2056 15.1136C62.4556 15.1136 62.7099 15.0497 62.9684 14.9219C63.2298 14.794 63.4485 14.598 63.6246 14.3338C63.8036 14.0696 63.8931 13.733 63.8931 13.3239ZM62.7852 8.56818H61.9499V7.64773C62.2482 7.63068 62.4585 7.58949 62.5806 7.52415C62.7056 7.45881 62.7681 7.35795 62.7681 7.22159C62.7681 7.06818 62.6786 6.95597 62.4996 6.88494C62.3207 6.81392 62.1033 6.77841 61.8477 6.77841L61.8817 6.13068C62.4698 6.13068 62.9144 6.23295 63.2156 6.4375C63.5195 6.64205 63.6715 6.91477 63.6715 7.25568C63.6715 7.54545 63.5792 7.7571 63.3945 7.89062C63.2099 8.02415 63.0067 8.10795 62.7852 8.14205V8.56818ZM71.6136 7.27273V16H70.608V7.27273H71.6136ZM74.1033 18.4545C73.9329 18.4545 73.7809 18.4403 73.6474 18.4119C73.5138 18.3864 73.4215 18.3608 73.3704 18.3352L73.6261 17.4489C73.8704 17.5114 74.0863 17.5341 74.2738 17.517C74.4613 17.5 74.6275 17.4162 74.7724 17.2656C74.9201 17.1179 75.055 16.8778 75.1772 16.5455L75.3647 16.0341L72.9442 9.45455H74.0352L75.842 14.6705H75.9102L77.717 9.45455H78.8079L76.0295 16.9545C75.9045 17.2926 75.7496 17.5724 75.565 17.794C75.3803 18.0185 75.1658 18.1847 74.9215 18.2926C74.68 18.4006 74.4073 18.4545 74.1033 18.4545ZM75.4158 8.56818L76.4556 6.59091H77.6317L76.3022 8.56818H75.4158Z" fill="#DEA821"/>
</g>
<defs>
<clipPath id="clip0_21_1376">
<rect width="88" height="24" rx="12" fill="white"/>
</clipPath>
<clipPath id="clip1_21_1376">
<rect x="8" y="6" width="12" height="12" rx="4" fill="white"/>
</clipPath>
</defs>
</svg>
